<?xml version="1.0" encoding="UTF-8"?>
<svg id="Layer_2" data-name="Layer 2" xmlns="http://www.w3.org/2000/svg" viewBox="0 0 212.85 79.84">
  <g id="Layer_1-2" data-name="Layer 1">
    <g>
      <g>
        <path d="M23.63,79.84c-4.5,0-8.55-1.05-12.14-3.14-3.6-2.09-6.41-5-8.44-8.72-2.03-3.72-3.05-7.98-3.05-12.8s1.03-9.27,3.09-12.99,4.89-6.63,8.49-8.72c3.59-2.09,7.64-3.14,12.14-3.14s8.55,1.05,12.14,3.14c3.59,2.1,6.41,4.99,8.44,8.67,2.03,3.69,3.05,8,3.05,12.94s-1.03,9.25-3.09,12.94c-2.06,3.69-4.89,6.58-8.49,8.67-3.6,2.09-7.64,3.14-12.14,3.14ZM23.63,70.18c2.25,0,4.3-.56,6.14-1.69,1.84-1.12,3.33-2.81,4.45-5.06,1.13-2.25,1.69-5.03,1.69-8.34s-.55-6.08-1.64-8.3c-1.09-2.22-2.56-3.89-4.41-5.02-1.84-1.13-3.89-1.69-6.14-1.69s-4.22.56-6.09,1.69c-1.88,1.12-3.38,2.8-4.5,5.02-1.13,2.22-1.69,4.99-1.69,8.3s.56,6.09,1.69,8.34,2.61,3.94,4.45,5.06c1.84,1.13,3.86,1.69,6.05,1.69Z" fill="#212121"/>
        <path d="M58.32,78.71V31.46h10.03l1.03,8.81c1.13-2.06,2.53-3.83,4.22-5.3,1.69-1.47,3.67-2.61,5.95-3.42,2.28-.81,4.8-1.22,7.55-1.22v11.91h-3.94c-1.88,0-3.66.24-5.34.7s-3.14,1.22-4.36,2.25c-1.22,1.03-2.17,2.44-2.86,4.22-.69,1.78-1.03,4.02-1.03,6.7v22.6h-11.25Z" fill="#212121"/>
        <path d="M122.55,79.84c-2.5,0-4.75-.33-6.75-.98-2-.66-3.75-1.56-5.25-2.72-1.5-1.16-2.75-2.48-3.75-3.99l-1.22,6.56h-10.03V11.2h11.25v27.19c1.5-2.31,3.53-4.23,6.09-5.77,2.56-1.53,5.75-2.3,9.56-2.3,4.44,0,8.36,1.08,11.77,3.24,3.41,2.16,6.09,5.09,8.06,8.81,1.97,3.72,2.95,7.99,2.95,12.8s-.97,8.91-2.91,12.66c-1.94,3.75-4.61,6.69-8.02,8.81-3.41,2.12-7.33,3.19-11.77,3.19ZM120.2,70.09c2.63,0,4.97-.64,7.03-1.92,2.06-1.28,3.67-3.03,4.83-5.25,1.16-2.22,1.73-4.83,1.73-7.83s-.58-5.53-1.73-7.78c-1.16-2.25-2.77-4-4.83-5.25-2.06-1.25-4.41-1.88-7.03-1.88s-5.05.63-7.08,1.88c-2.03,1.25-3.63,3-4.78,5.25-1.16,2.25-1.73,4.85-1.73,7.78s.58,5.61,1.73,7.83c1.16,2.22,2.75,3.97,4.78,5.25,2.03,1.28,4.39,1.92,7.08,1.92Z" fill="#212121"/>
        <path d="M162.21,23.96c-2.06,0-3.77-.64-5.11-1.92-1.34-1.28-2.02-2.86-2.02-4.73s.67-3.52,2.02-4.74c1.34-1.22,3.05-1.83,5.11-1.83s3.77.61,5.11,1.83c1.34,1.22,2.02,2.8,2.02,4.74s-.67,3.45-2.02,4.73c-1.34,1.28-3.05,1.92-5.11,1.92ZM156.58,78.71V31.46h11.25v47.26h-11.25Z" fill="#212121"/>
        <path d="M201.4,78.71c-3.19,0-5.95-.5-8.3-1.5-2.34-1-4.17-2.66-5.49-4.97-1.31-2.31-1.97-5.44-1.97-9.38v-21.94h-8.06l3.11-9.47h4.96l1.31-12.47h9.94v12.47h12.85l3.11,9.47h-15.95v21.94c0,2.38.52,4.02,1.55,4.92s2.77,1.36,5.2,1.36h5.81v9.56h-8.06Z" fill="#212121"/>
      </g>
      <g>
        <rect x="83.92" width="11.2" height="11.2" fill="#212121"/>
        <rect x="72.71" y="11.2" width="11.2" height="11.2" fill="#212121"/>
      </g>
    </g>
  </g>
</svg>