<?xml version="1.0" encoding="UTF-8"?>
<svg id="Layer_1" data-name="Layer 1" xmlns="http://www.w3.org/2000/svg" viewBox="0 0 250 250">
  <g>
    <path d="M62.89,154.94c-3.38,0-6.41-.79-9.11-2.36-2.7-1.57-4.81-3.75-6.33-6.54-1.52-2.79-2.29-5.99-2.29-9.6s.77-6.95,2.32-9.74,3.67-4.97,6.37-6.54c2.7-1.57,5.73-2.36,9.11-2.36s6.41.79,9.11,2.36c2.7,1.57,4.81,3.74,6.33,6.51,1.52,2.77,2.29,6,2.29,9.71s-.77,6.94-2.32,9.7c-1.55,2.77-3.67,4.94-6.37,6.51-2.7,1.57-5.73,2.36-9.11,2.36ZM62.89,147.7c1.69,0,3.22-.42,4.61-1.27,1.38-.84,2.5-2.11,3.34-3.8.84-1.69,1.27-3.77,1.27-6.26s-.41-4.56-1.23-6.22c-.82-1.66-1.92-2.92-3.31-3.76-1.38-.84-2.92-1.27-4.61-1.27s-3.16.42-4.57,1.27c-1.41.84-2.53,2.1-3.38,3.76-.84,1.66-1.27,3.74-1.27,6.22s.42,4.57,1.27,6.26,1.96,2.95,3.34,3.8c1.38.84,2.89,1.27,4.54,1.27Z" fill="#212121"/>
    <path d="M88.92,154.1v-35.45h7.53l.77,6.61c.84-1.55,1.9-2.87,3.17-3.97,1.27-1.1,2.75-1.96,4.47-2.57,1.71-.61,3.6-.91,5.66-.91v8.93h-2.95c-1.41,0-2.74.18-4.01.53s-2.36.91-3.27,1.69c-.91.77-1.63,1.83-2.15,3.17-.52,1.34-.77,3.01-.77,5.03v16.95h-8.44Z" fill="#212121"/>
    <path d="M137.09,154.94c-1.88,0-3.56-.25-5.06-.74-1.5-.49-2.81-1.17-3.94-2.04-1.13-.87-2.06-1.86-2.81-2.99l-.92,4.92h-7.52v-50.64h8.44v20.4c1.12-1.73,2.65-3.18,4.57-4.33,1.92-1.15,4.31-1.72,7.17-1.72,3.33,0,6.27.81,8.83,2.43,2.55,1.62,4.57,3.82,6.05,6.61,1.48,2.79,2.21,5.99,2.21,9.6s-.73,6.68-2.18,9.49-3.46,5.02-6.01,6.61c-2.56,1.59-5.5,2.39-8.83,2.39ZM135.33,147.63c1.97,0,3.73-.48,5.27-1.44,1.55-.96,2.75-2.27,3.62-3.94.87-1.66,1.3-3.62,1.3-5.87s-.43-4.15-1.3-5.84c-.87-1.69-2.07-3-3.62-3.94-1.55-.94-3.31-1.41-5.27-1.41s-3.79.47-5.31,1.41c-1.52.94-2.72,2.25-3.59,3.94-.87,1.69-1.3,3.63-1.3,5.84s.43,4.21,1.3,5.87c.87,1.66,2.06,2.98,3.59,3.94,1.52.96,3.29,1.44,5.31,1.44Z" fill="#212121"/>
    <path d="M166.84,113.03c-1.55,0-2.82-.48-3.83-1.44-1.01-.96-1.51-2.14-1.51-3.55s.5-2.64,1.51-3.55c1.01-.91,2.29-1.37,3.83-1.37s2.82.46,3.83,1.37c1.01.91,1.51,2.1,1.51,3.55s-.5,2.59-1.51,3.55c-1.01.96-2.29,1.44-3.83,1.44ZM162.62,154.1v-35.45h8.44v35.45h-8.44Z" fill="#212121"/>
    <path d="M196.24,154.1c-2.39,0-4.47-.37-6.22-1.12-1.76-.75-3.13-1.99-4.11-3.73-.99-1.73-1.48-4.08-1.48-7.03v-16.46h-6.05l2.33-7.1h3.72l.98-9.35h7.46v9.35h9.64l2.33,7.1h-11.97v16.46c0,1.78.39,3.01,1.16,3.69s2.07,1.02,3.9,1.02h4.36v7.17h-6.05Z" fill="#212121"/>
  </g>
  <g>
    <rect x="108.12" y="95.06" width="8.4" height="8.4" fill="#212121"/>
    <rect x="99.71" y="103.46" width="8.4" height="8.4" fill="#212121"/>
  </g>
</svg>